<mxfile host="app.diagrams.net" modified="2023-06-01T19:08:49.848Z" agent="Mozilla/5.0 (Macintosh; Intel Mac OS X 10_15_7) AppleWebKit/537.36 (KHTML, like Gecko) Chrome/108.0.0.0 Safari/537.36" etag="kBBcRRiFQ7iRaP81zbXv" version="21.2.7" type="device">
  <diagram name="Seite-1" id="Fh_kDbGQZiGUxIgXBgN6">
    <mxGraphModel dx="2901" dy="1021" grid="1" gridSize="10" guides="1" tooltips="1" connect="1" arrows="1" fold="1" page="1" pageScale="1" pageWidth="827" pageHeight="1169" math="0" shadow="0">
      <root>
        <mxCell id="0" />
        <mxCell id="1" parent="0" />
        <mxCell id="-W3eZOnFYPpoVwgGXdYE-3" value="" style="edgeStyle=orthogonalEdgeStyle;rounded=0;orthogonalLoop=1;jettySize=auto;html=1;exitX=0.5;exitY=1;exitDx=0;exitDy=0;" edge="1" parent="1" source="-W3eZOnFYPpoVwgGXdYE-1" target="-W3eZOnFYPpoVwgGXdYE-2">
          <mxGeometry relative="1" as="geometry" />
        </mxCell>
        <mxCell id="-W3eZOnFYPpoVwgGXdYE-5" value="" style="edgeStyle=orthogonalEdgeStyle;rounded=0;orthogonalLoop=1;jettySize=auto;html=1;" edge="1" parent="1" source="-W3eZOnFYPpoVwgGXdYE-1" target="-W3eZOnFYPpoVwgGXdYE-4">
          <mxGeometry relative="1" as="geometry" />
        </mxCell>
        <mxCell id="-W3eZOnFYPpoVwgGXdYE-7" value="" style="edgeStyle=orthogonalEdgeStyle;rounded=0;orthogonalLoop=1;jettySize=auto;html=1;exitX=0.5;exitY=1;exitDx=0;exitDy=0;" edge="1" parent="1" source="-W3eZOnFYPpoVwgGXdYE-1" target="-W3eZOnFYPpoVwgGXdYE-6">
          <mxGeometry relative="1" as="geometry" />
        </mxCell>
        <mxCell id="-W3eZOnFYPpoVwgGXdYE-67" value="" style="edgeStyle=orthogonalEdgeStyle;rounded=0;orthogonalLoop=1;jettySize=auto;html=1;" edge="1" parent="1" source="-W3eZOnFYPpoVwgGXdYE-1" target="-W3eZOnFYPpoVwgGXdYE-66">
          <mxGeometry relative="1" as="geometry" />
        </mxCell>
        <mxCell id="-W3eZOnFYPpoVwgGXdYE-1" value="MainActivity" style="rounded=0;whiteSpace=wrap;html=1;" vertex="1" parent="1">
          <mxGeometry x="190" y="90" width="120" height="60" as="geometry" />
        </mxCell>
        <mxCell id="-W3eZOnFYPpoVwgGXdYE-38" value="" style="edgeStyle=orthogonalEdgeStyle;rounded=0;orthogonalLoop=1;jettySize=auto;html=1;" edge="1" parent="1" source="-W3eZOnFYPpoVwgGXdYE-2" target="-W3eZOnFYPpoVwgGXdYE-37">
          <mxGeometry relative="1" as="geometry" />
        </mxCell>
        <mxCell id="-W3eZOnFYPpoVwgGXdYE-2" value="ExercisesFragment" style="whiteSpace=wrap;html=1;rounded=0;" vertex="1" parent="1">
          <mxGeometry x="-80" y="250" width="120" height="60" as="geometry" />
        </mxCell>
        <mxCell id="-W3eZOnFYPpoVwgGXdYE-32" value="" style="edgeStyle=orthogonalEdgeStyle;rounded=0;orthogonalLoop=1;jettySize=auto;html=1;" edge="1" parent="1" source="-W3eZOnFYPpoVwgGXdYE-4" target="-W3eZOnFYPpoVwgGXdYE-31">
          <mxGeometry relative="1" as="geometry" />
        </mxCell>
        <mxCell id="-W3eZOnFYPpoVwgGXdYE-4" value="UserFragment" style="rounded=0;whiteSpace=wrap;html=1;" vertex="1" parent="1">
          <mxGeometry x="190" y="250" width="120" height="60" as="geometry" />
        </mxCell>
        <mxCell id="-W3eZOnFYPpoVwgGXdYE-43" value="" style="edgeStyle=orthogonalEdgeStyle;rounded=0;orthogonalLoop=1;jettySize=auto;html=1;" edge="1" parent="1" source="-W3eZOnFYPpoVwgGXdYE-6" target="-W3eZOnFYPpoVwgGXdYE-42">
          <mxGeometry relative="1" as="geometry" />
        </mxCell>
        <mxCell id="-W3eZOnFYPpoVwgGXdYE-55" value="" style="edgeStyle=orthogonalEdgeStyle;rounded=0;orthogonalLoop=1;jettySize=auto;html=1;" edge="1" parent="1" source="-W3eZOnFYPpoVwgGXdYE-6" target="-W3eZOnFYPpoVwgGXdYE-10">
          <mxGeometry relative="1" as="geometry" />
        </mxCell>
        <mxCell id="-W3eZOnFYPpoVwgGXdYE-60" value="" style="edgeStyle=orthogonalEdgeStyle;rounded=0;orthogonalLoop=1;jettySize=auto;html=1;" edge="1" parent="1" source="-W3eZOnFYPpoVwgGXdYE-6" target="-W3eZOnFYPpoVwgGXdYE-59">
          <mxGeometry relative="1" as="geometry" />
        </mxCell>
        <mxCell id="-W3eZOnFYPpoVwgGXdYE-6" value="HomeFragment" style="rounded=0;whiteSpace=wrap;html=1;" vertex="1" parent="1">
          <mxGeometry x="600" y="250" width="120" height="60" as="geometry" />
        </mxCell>
        <mxCell id="-W3eZOnFYPpoVwgGXdYE-16" value="" style="edgeStyle=orthogonalEdgeStyle;rounded=0;orthogonalLoop=1;jettySize=auto;html=1;" edge="1" parent="1" source="-W3eZOnFYPpoVwgGXdYE-10" target="-W3eZOnFYPpoVwgGXdYE-15">
          <mxGeometry relative="1" as="geometry" />
        </mxCell>
        <mxCell id="-W3eZOnFYPpoVwgGXdYE-54" style="edgeStyle=orthogonalEdgeStyle;rounded=0;orthogonalLoop=1;jettySize=auto;html=1;exitX=1;exitY=0.5;exitDx=0;exitDy=0;entryX=0;entryY=0.5;entryDx=0;entryDy=0;" edge="1" parent="1" source="-W3eZOnFYPpoVwgGXdYE-10" target="-W3eZOnFYPpoVwgGXdYE-52">
          <mxGeometry relative="1" as="geometry" />
        </mxCell>
        <mxCell id="-W3eZOnFYPpoVwgGXdYE-65" style="edgeStyle=orthogonalEdgeStyle;rounded=0;orthogonalLoop=1;jettySize=auto;html=1;exitX=1;exitY=0.5;exitDx=0;exitDy=0;entryX=0;entryY=0.5;entryDx=0;entryDy=0;" edge="1" parent="1" source="-W3eZOnFYPpoVwgGXdYE-10" target="-W3eZOnFYPpoVwgGXdYE-62">
          <mxGeometry relative="1" as="geometry" />
        </mxCell>
        <mxCell id="-W3eZOnFYPpoVwgGXdYE-10" value="MainViewModel" style="whiteSpace=wrap;html=1;rounded=0;" vertex="1" parent="1">
          <mxGeometry x="400" y="410" width="120" height="60" as="geometry" />
        </mxCell>
        <mxCell id="-W3eZOnFYPpoVwgGXdYE-28" value="" style="edgeStyle=orthogonalEdgeStyle;rounded=0;orthogonalLoop=1;jettySize=auto;html=1;exitX=0.5;exitY=1;exitDx=0;exitDy=0;entryX=1;entryY=0.5;entryDx=0;entryDy=0;" edge="1" parent="1" source="-W3eZOnFYPpoVwgGXdYE-15" target="-W3eZOnFYPpoVwgGXdYE-27">
          <mxGeometry relative="1" as="geometry" />
        </mxCell>
        <mxCell id="-W3eZOnFYPpoVwgGXdYE-15" value="MainRepository" style="whiteSpace=wrap;html=1;rounded=0;" vertex="1" parent="1">
          <mxGeometry x="400" y="600" width="120" height="60" as="geometry" />
        </mxCell>
        <mxCell id="-W3eZOnFYPpoVwgGXdYE-27" value="AppDatabase" style="whiteSpace=wrap;html=1;rounded=0;" vertex="1" parent="1">
          <mxGeometry x="250" y="660" width="120" height="60" as="geometry" />
        </mxCell>
        <mxCell id="-W3eZOnFYPpoVwgGXdYE-34" value="" style="edgeStyle=orthogonalEdgeStyle;rounded=0;orthogonalLoop=1;jettySize=auto;html=1;" edge="1" parent="1" source="-W3eZOnFYPpoVwgGXdYE-31" target="-W3eZOnFYPpoVwgGXdYE-33">
          <mxGeometry relative="1" as="geometry" />
        </mxCell>
        <mxCell id="-W3eZOnFYPpoVwgGXdYE-51" value="" style="edgeStyle=orthogonalEdgeStyle;rounded=0;orthogonalLoop=1;jettySize=auto;html=1;" edge="1" parent="1" source="-W3eZOnFYPpoVwgGXdYE-31" target="-W3eZOnFYPpoVwgGXdYE-50">
          <mxGeometry relative="1" as="geometry" />
        </mxCell>
        <mxCell id="-W3eZOnFYPpoVwgGXdYE-31" value="UserViewModel" style="rounded=0;whiteSpace=wrap;html=1;" vertex="1" parent="1">
          <mxGeometry x="130" y="410" width="120" height="60" as="geometry" />
        </mxCell>
        <mxCell id="-W3eZOnFYPpoVwgGXdYE-35" style="edgeStyle=orthogonalEdgeStyle;rounded=0;orthogonalLoop=1;jettySize=auto;html=1;exitX=0.5;exitY=1;exitDx=0;exitDy=0;entryX=0;entryY=0.5;entryDx=0;entryDy=0;" edge="1" parent="1" source="-W3eZOnFYPpoVwgGXdYE-33" target="-W3eZOnFYPpoVwgGXdYE-27">
          <mxGeometry relative="1" as="geometry" />
        </mxCell>
        <mxCell id="-W3eZOnFYPpoVwgGXdYE-33" value="UserRepository" style="rounded=0;whiteSpace=wrap;html=1;" vertex="1" parent="1">
          <mxGeometry x="130" y="525" width="120" height="60" as="geometry" />
        </mxCell>
        <mxCell id="-W3eZOnFYPpoVwgGXdYE-40" value="" style="edgeStyle=orthogonalEdgeStyle;rounded=0;orthogonalLoop=1;jettySize=auto;html=1;" edge="1" parent="1" source="-W3eZOnFYPpoVwgGXdYE-37" target="-W3eZOnFYPpoVwgGXdYE-39">
          <mxGeometry relative="1" as="geometry" />
        </mxCell>
        <mxCell id="-W3eZOnFYPpoVwgGXdYE-49" value="" style="edgeStyle=orthogonalEdgeStyle;rounded=0;orthogonalLoop=1;jettySize=auto;html=1;" edge="1" parent="1" source="-W3eZOnFYPpoVwgGXdYE-37" target="-W3eZOnFYPpoVwgGXdYE-48">
          <mxGeometry relative="1" as="geometry" />
        </mxCell>
        <mxCell id="-W3eZOnFYPpoVwgGXdYE-37" value="ExercisesViewModel" style="whiteSpace=wrap;html=1;rounded=0;" vertex="1" parent="1">
          <mxGeometry x="-80" y="410" width="120" height="60" as="geometry" />
        </mxCell>
        <mxCell id="-W3eZOnFYPpoVwgGXdYE-41" style="edgeStyle=orthogonalEdgeStyle;rounded=0;orthogonalLoop=1;jettySize=auto;html=1;exitX=0.5;exitY=1;exitDx=0;exitDy=0;entryX=0;entryY=0.5;entryDx=0;entryDy=0;" edge="1" parent="1" source="-W3eZOnFYPpoVwgGXdYE-39" target="-W3eZOnFYPpoVwgGXdYE-27">
          <mxGeometry relative="1" as="geometry" />
        </mxCell>
        <mxCell id="-W3eZOnFYPpoVwgGXdYE-39" value="ExecisesRepository" style="whiteSpace=wrap;html=1;rounded=0;" vertex="1" parent="1">
          <mxGeometry x="-80" y="555" width="120" height="60" as="geometry" />
        </mxCell>
        <mxCell id="-W3eZOnFYPpoVwgGXdYE-45" value="" style="edgeStyle=orthogonalEdgeStyle;rounded=0;orthogonalLoop=1;jettySize=auto;html=1;" edge="1" parent="1" source="-W3eZOnFYPpoVwgGXdYE-42" target="-W3eZOnFYPpoVwgGXdYE-44">
          <mxGeometry relative="1" as="geometry" />
        </mxCell>
        <mxCell id="-W3eZOnFYPpoVwgGXdYE-53" value="" style="edgeStyle=orthogonalEdgeStyle;rounded=0;orthogonalLoop=1;jettySize=auto;html=1;" edge="1" parent="1" source="-W3eZOnFYPpoVwgGXdYE-42" target="-W3eZOnFYPpoVwgGXdYE-52">
          <mxGeometry relative="1" as="geometry" />
        </mxCell>
        <mxCell id="-W3eZOnFYPpoVwgGXdYE-42" value="ConnectionService" style="rounded=0;whiteSpace=wrap;html=1;" vertex="1" parent="1">
          <mxGeometry x="780" y="250" width="170" height="60" as="geometry" />
        </mxCell>
        <mxCell id="-W3eZOnFYPpoVwgGXdYE-44" value="PolarSDK" style="rounded=0;whiteSpace=wrap;html=1;" vertex="1" parent="1">
          <mxGeometry x="1010" y="250" width="170" height="60" as="geometry" />
        </mxCell>
        <mxCell id="-W3eZOnFYPpoVwgGXdYE-48" value="ExercisesService" style="whiteSpace=wrap;html=1;rounded=0;" vertex="1" parent="1">
          <mxGeometry x="-230" y="555" width="120" height="55" as="geometry" />
        </mxCell>
        <mxCell id="-W3eZOnFYPpoVwgGXdYE-50" value="UserService" style="rounded=0;whiteSpace=wrap;html=1;" vertex="1" parent="1">
          <mxGeometry x="270" y="520" width="120" height="60" as="geometry" />
        </mxCell>
        <mxCell id="-W3eZOnFYPpoVwgGXdYE-52" value="HrEventBus" style="rounded=0;whiteSpace=wrap;html=1;" vertex="1" parent="1">
          <mxGeometry x="780" y="410" width="170" height="60" as="geometry" />
        </mxCell>
        <mxCell id="-W3eZOnFYPpoVwgGXdYE-61" style="edgeStyle=orthogonalEdgeStyle;rounded=0;orthogonalLoop=1;jettySize=auto;html=1;exitX=1;exitY=0.5;exitDx=0;exitDy=0;entryX=0.5;entryY=1;entryDx=0;entryDy=0;" edge="1" parent="1" source="-W3eZOnFYPpoVwgGXdYE-59" target="-W3eZOnFYPpoVwgGXdYE-52">
          <mxGeometry relative="1" as="geometry" />
        </mxCell>
        <mxCell id="-W3eZOnFYPpoVwgGXdYE-63" value="" style="edgeStyle=orthogonalEdgeStyle;rounded=0;orthogonalLoop=1;jettySize=auto;html=1;" edge="1" parent="1" source="-W3eZOnFYPpoVwgGXdYE-59" target="-W3eZOnFYPpoVwgGXdYE-62">
          <mxGeometry relative="1" as="geometry" />
        </mxCell>
        <mxCell id="-W3eZOnFYPpoVwgGXdYE-59" value="ActivityService" style="rounded=0;whiteSpace=wrap;html=1;" vertex="1" parent="1">
          <mxGeometry x="600" y="480" width="120" height="60" as="geometry" />
        </mxCell>
        <mxCell id="-W3eZOnFYPpoVwgGXdYE-62" value="ActivityEventBus" style="rounded=0;whiteSpace=wrap;html=1;" vertex="1" parent="1">
          <mxGeometry x="600" y="590" width="120" height="60" as="geometry" />
        </mxCell>
        <mxCell id="-W3eZOnFYPpoVwgGXdYE-66" value="SharedPreferencesHelper" style="rounded=0;whiteSpace=wrap;html=1;" vertex="1" parent="1">
          <mxGeometry x="-310" y="250" width="170" height="60" as="geometry" />
        </mxCell>
      </root>
    </mxGraphModel>
  </diagram>
</mxfile>
